<?xml version="1.0" encoding="utf-8"?>
<svg version="1.1" xmlns="http://www.w3.org/2000/svg" xmlns:xlink="http://www.w3.org/1999/xlink" x="0px" y="0px"
	 viewBox="0 0 783 783" xml:space="preserve">
<style type="text/css">
	.top{fill:#EF3E4E;}
	.bottom{fill:#28363E;}
</style>
<g id="Layer_2">
</g>
<g id="Layer_1">
	<g>
		<g>
			<path class="top" d="M190.2,500.9c8.3-14.1,25.6-21.3,43.7-21.3c34.4,0,62.9,25.1,62.9,64.8c0,39.5-29.1,65.1-63.2,65.1
				c-17.3,0-35.2-7.7-43.5-21.9v8.3c0,6.7-5.3,12.3-12.3,12.3c-6.7,0-12-5.6-12-12.3V425.4c0-6.7,5.3-12.3,12-12.3
				c6.9,0,12.3,5.6,12.3,12.3V500.9z M231.8,585.7c22.4,0,40.3-17.1,40.3-41.6c0-24.8-17.9-40.8-40.3-40.8
				c-20,0-41.3,14.1-41.3,40.8C190.5,570.5,209.7,585.7,231.8,585.7z"/>
			<path class="top" d="M306.7,493.2c0-6.7,5.3-12.3,12-12.3c6.9,0,12.3,5.6,12.3,12.3v7.7c6.7-13.9,24.3-20.5,34.4-21.3
				c4.8-0.3,9.3,0,13.6,0.8c15.7,2.4,26.7,11.2,32.5,24.8c11.5-22.1,30.9-25.6,43.2-25.6c31.2,0,48,20.3,48,55.2v61.1
				c0,6.7-5.3,12.3-12.3,12.3c-6.7,0-12-5.6-12-12.3v-59.5c0-20.5-10.7-33.1-28.5-33.1c-20.5-0.3-33.1,15.5-33.1,36.3v56.3
				c0,6.7-5.3,12.3-12.3,12.3c-6.7,0-12-5.6-12-12.3v-59.7c0-20.5-10.7-33.3-26.9-33.3c-17.3,0-34.7,10.7-34.7,36.8v56.3
				c0,6.7-5.3,12.3-12.3,12.3c-6.7,0-12-5.6-12-12.3V493.2z"/>
			<path class="top" d="M513.6,502.8c-5.6,0-10.4-4.5-10.4-10.4c0-5.6,4.8-10.1,10.4-10.1h13.3v-36c0-6.7,5.3-12.3,12-12.3
				c6.9,0,12.3,5.6,12.3,12.3v36h17.6c5.6,0,10.4,4.5,10.4,10.4c0,5.6-4.8,10.1-10.4,10.1h-17.6v93c0,6.7-5.3,12.3-12.3,12.3
				c-6.7,0-12-5.6-12-12.3v-93H513.6z"/>
			<path class="top" d="M696.8,595.8c0,6.7-5.3,12.3-12.3,12.3c-6.7,0-12-5.6-12-12.3v-59.5c0-20.5-12.3-33.1-29.3-33.1
				s-37.9,9.6-37.9,36.3v56.3c0,6.7-5.3,12.3-12.3,12.3c-6.7,0-12-5.6-12-12.3V425.4c0-6.7,5.3-12.3,12-12.3
				c6.9,0,12.3,5.6,12.3,12.3v75.5c7.5-14.9,27.5-21.3,41.1-21.3c31.2,0,50.7,20.3,50.4,55.2V595.8z"/>
		</g>
	</g>
	<g>
		<g>
			<path class="bottom" d="M75.7,396.8c-12.9-1.5-15.8-20.8-2.5-29.2c13.4-9.9,42-12.4,52.9-3.5c9.4,8.4-2.5,24.7-12.9,27.7
				C103.9,396.4,89.1,399.8,75.7,396.8z"/>
			<path class="bottom" d="M233.5,322.1c0,0,72.2-98,110.3-109.8c20.3-6.4,52.9,11.9,44.5,36.1C374,288.5,320.6,379,343.8,376.6
				c14.3-1.5,67.3-57.9,97-103.9c7.9-6.9,14.3,0.5,11.9,8.9c-22.8,42-61.3,88.6-88.1,107.4c-26.2,18.3-70.2-2.5-68.8-31.7
				c2.5-47.5,57.9-117.2,48.5-118.2c-20.8-2-126.1,134.1-131.6,148.9c-11.9,11.4-50-5.4-45.5-19.3c4.5-13.9,64.3-130.6,69.3-153.9
				c11.4-7.9,38.6,6.4,37.1,18.3C271.6,249.9,233.5,322.1,233.5,322.1z"/>
			<path class="bottom" d="M461.1,327.1c-2.5,7.9-4.5,14.8-4.5,21.8c-0.5,13.9,2.5,29.2,18.8,30.7c44,4,104.9-81.1,126.6-108.3
				c5.4-5.9,19.3-5.9,14.8,4.9c-15.8,31.7-60.4,96.5-102.9,118.2c-34.6,17.8-83.6-4-96.5-38.1c-19.3-51,38.6-136,80.6-154.8
				c36.6-16.3,82.1,20.3,76.2,47.5C568.9,274.2,501.2,310.3,461.1,327.1z M472,301.9c26.7-16.8,54.9-41.6,67.8-58.4
				c13.9-17.8,3-25.7-15.3-9.4C508.6,248.4,486.3,274.7,472,301.9z"/>
			<path class="bottom" d="M668.8,208.4c20.3,0,37.1,1,39.6,3.5c5.4,6.9,1,16.3-6.9,15.8c-3.5-1.5-21.3-2.5-41.6-2.5l-8.4,18.8
				c-27.7,64.8-56.9,131.6-31.2,135.1c15.3,2,54.9-42,70.7-66.3c4.5-3.5,7.9,1,7.9,5.9c-3,18.3-20.8,60.4-45.5,75.2
				c-16.8,9.9-80.1-4.9-85.6-35.1c-4.5-23.3,8.9-62.3,44.5-133.1c-10.9,0.5-19.3,0.5-21.8,0.5c-9.9,0-8.4-13.9,2-17.8
				c3,1,14.3,1,28.2,0.5c30.2-58.4,45-79.6,48-92c15.8-5.4,38.6,12.4,36.1,23.3C702.5,150.5,685.2,177.7,668.8,208.4z"/>
		</g>
	</g>
</g>
</svg>
